<?xml version="1.0" encoding="UTF-8" standalone="no"?>
<!DOCTYPE svg PUBLIC "-//W3C//DTD SVG 1.1//EN" "http://www.w3.org/Graphics/SVG/1.1/DTD/svg11.dtd">
<svg width="420.48" height="420.48" viewBox="0.00 0.00 1752.00 1752.00" xmlns="http://www.w3.org/2000/svg" xmlns:xlink="http://www.w3.org/1999/xlink">
<g stroke-linecap="round" id="cerebro_negro">
<path d="M839.56,366.58 C839.41,366.41 829.03,362.32 822.60,360.15 C816.88,358.34 806.89,355.48 798.02,353.43 C789.23,351.63 776.35,349.54 771.23,348.90 C764.05,348.10 746.72,346.75 742.08,346.62 C732.25,346.48 718.34,347.00 713.82,347.41 C704.93,348.35 690.45,350.53 684.77,351.61 C675.18,353.60 662.09,356.85 655.07,358.80 C646.66,361.33 633.74,365.82 630.00,367.33 C622.09,370.65 611.75,375.67 607.16,378.26 C599.49,382.74 590.22,388.85 586.19,391.86 C576.80,399.00 556.68,418.18 549.33,426.56 C539.81,437.84 530.67,451.20 519.93,468.54" fill="none" stroke="rgb(0, 0, 0)" stroke-width="7.00" stroke-opacity="1.00" stroke-linejoin="round"/>
<path d="M877.98,336.75 C875.60,335.24 874.52,334.63 872.89,333.90 C859.60,327.67 826.42,312.61 815.31,309.00 C807.52,306.48 794.06,303.25 786.70,302.11 C771.88,299.97 745.00,298.85 725.85,298.93 C717.70,299.18 701.73,300.23 693.90,301.03 C689.09,301.58 669.87,305.11 661.92,306.92 C654.03,308.94 638.90,313.26 631.77,315.47 C621.95,318.68 610.29,323.25 603.17,326.29 C597.72,328.76 583.31,336.13 576.67,339.87 C570.19,343.69 558.20,351.77 552.16,356.05 C543.36,362.53 533.81,370.11 528.05,375.35 C521.88,380.98 511.75,391.85 506.71,397.83 C501.75,403.89 491.51,417.90 488.19,422.89 C483.24,430.57 476.09,443.41 472.41,451.89 C470.61,456.06 464.60,472.31 462.76,477.26" fill="none" stroke="rgb(0, 0, 0)" stroke-width="7.00" stroke-opacity="1.00" stroke-linejoin="round"/>
<path d="M877.14,336.36 C877.13,336.37 877.16,336.36 877.17,336.36 C883.06,333.47 896.38,327.20 904.02,323.95 C914.37,319.69 939.80,310.73 954.90,306.83 C961.64,305.24 975.48,302.48 982.08,301.56 C988.76,300.74 1002.69,299.45 1010.14,299.47 C1017.59,299.59 1032.26,300.38 1040.04,301.33 C1047.72,302.40 1062.37,304.99 1069.41,306.61 C1076.35,308.31 1089.95,312.49 1096.78,314.84 C1103.57,317.34 1116.91,322.78 1123.71,325.83 C1130.58,329.04 1143.86,336.18 1150.41,340.04 C1156.91,344.04 1169.31,352.65 1174.72,357.11 C1179.90,361.47 1189.15,370.22 1193.51,374.63 C1197.71,379.04 1207.86,390.52 1212.36,396.46 C1214.53,399.33 1223.52,412.93 1227.52,419.10 C1228.54,420.70 1229.15,421.73 1229.67,422.64 C1229.67,422.64 1229.95,422.56 1229.95,422.56" fill="none" stroke="rgb(0, 0, 0)" stroke-width="7.00" stroke-opacity="1.00" stroke-linejoin="round"/>
<path d="M1230.57,423.03 C1231.48,423.19 1233.32,423.52 1234.26,423.68 C1242.43,425.05 1250.79,427.51 1261.05,431.04 C1268.77,433.80 1284.51,439.61 1292.00,442.61 C1301.76,446.78 1314.00,452.77 1320.12,456.53 C1323.20,458.42 1339.69,469.87 1343.24,472.62 C1349.37,477.47 1362.81,488.83 1367.52,493.21 C1373.24,498.68 1383.47,509.96 1388.48,515.87 C1393.36,521.93 1402.55,534.29 1406.61,540.72 C1410.62,547.28 1418.03,560.94 1421.34,567.89 C1424.52,574.85 1430.35,590.35 1432.26,596.54 C1434.58,604.12 1437.43,618.90 1438.37,627.85 C1439.09,635.42 1439.47,651.69 1439.42,659.40 C1439.11,669.65 1437.94,683.24 1436.06,691.05 C1435.28,694.18 1433.99,699.36 1433.47,701.42" fill="none" stroke="rgb(0, 0, 0)" stroke-width="7.00" stroke-opacity="1.00" stroke-linejoin="round"/>
<path d="M1433.00,700.91 C1441.17,705.20 1447.89,709.17 1455.32,716.17 C1460.09,720.71 1473.98,734.84 1477.14,738.31 C1483.04,744.84 1493.47,758.66 1497.23,765.04 C1501.31,772.02 1507.15,785.23 1509.72,793.22 C1512.32,801.74 1516.05,816.17 1517.05,821.84 C1518.47,829.98 1519.93,844.35 1520.32,853.76 C1520.53,861.69 1520.30,874.09 1519.32,884.64 C1518.44,892.11 1516.10,907.16 1514.63,914.65 C1512.20,925.60 1510.08,933.24 1506.51,944.03 C1503.89,951.33 1498.04,965.88 1494.84,972.99 C1490.12,982.74 1483.93,993.58 1479.83,1000.24 C1474.00,1009.19 1466.43,1019.75 1461.54,1025.73 C1456.01,1032.35 1445.49,1043.30 1439.53,1048.70 C1433.50,1054.17 1420.76,1064.13 1415.22,1067.74 C1404.89,1074.41 1381.79,1084.84 1378.39,1086.38" fill="none" stroke="rgb(0, 0, 0)" stroke-width="7.00" stroke-opacity="1.00" stroke-linejoin="round"/>
<path d="M1377.41,1086.39 C1377.22,1088.91 1376.73,1095.35 1376.24,1097.93 C1374.88,1105.00 1371.72,1120.85 1369.31,1128.69 C1367.05,1135.96 1360.83,1149.94 1356.78,1157.15 C1352.72,1164.32 1344.67,1176.22 1339.39,1182.77 C1334.59,1188.70 1323.05,1201.15 1317.89,1205.89 C1312.10,1211.14 1299.82,1221.11 1293.39,1225.78 C1286.98,1230.27 1273.27,1238.64 1266.22,1242.60 C1249.02,1251.77 1236.46,1256.80 1223.04,1261.89" fill="none" stroke="rgb(0, 0, 0)" stroke-width="7.00" stroke-opacity="1.00" stroke-linejoin="round"/>
<path d="M463.69,478.81 C461.41,479.36 454.01,481.11 451.73,481.72 C443.62,483.92 430.43,489.35 424.43,491.88 C417.20,495.05 401.87,501.87 394.56,505.92 C387.00,510.12 373.44,519.23 366.33,524.92 C360.20,529.93 348.33,541.11 342.61,547.25 C339.40,550.72 326.35,565.94 321.47,571.91 C316.87,577.73 308.27,589.14 303.36,596.80 C298.95,603.72 292.16,616.29 289.07,623.23 C287.03,627.84 279.17,648.85 277.93,653.09 C274.77,664.20 265.73,702.89 263.44,715.63 C262.17,723.53 260.10,739.03 259.58,746.98 C259.20,754.96 259.07,772.01 259.31,778.01 C259.76,785.46 261.27,800.53 262.32,808.16 C264.10,819.07 266.86,830.89 268.83,838.44 C270.99,846.09 275.90,861.67 278.62,869.44 C281.46,877.00 287.52,891.45 290.74,898.35 C293.57,904.21 302.54,919.11 307.02,925.52 C311.57,932.01 321.22,943.88 326.56,949.51 C331.81,955.02 342.63,964.83 349.41,970.01 C354.63,973.98 369.43,983.85 375.17,987.20 C382.01,991.17 396.24,997.99 403.60,1000.81 C411.16,1003.69 427.71,1008.22 436.42,1009.87 C443.81,1011.26 461.96,1013.46 469.77,1014.38 C475.66,1015.05 483.47,1015.96 493.64,1016.07" fill="none" stroke="rgb(0, 0, 0)" stroke-width="7.00" stroke-opacity="1.00" stroke-linejoin="round"/>
<path d="M839.33,366.53 C839.33,366.53 838.53,366.80 838.53,366.80" fill="none" stroke="rgb(0, 0, 0)" stroke-width="7.00" stroke-opacity="1.00" stroke-linejoin="round"/>
<path d="M836.52,446.64 C836.52,446.64 835.69,443.86 835.69,443.86" fill="none" stroke="rgb(0, 0, 0)" stroke-width="7.00" stroke-opacity="1.00" stroke-linejoin="round"/>
<path d="M845.49,431.60 C848.99,426.62 857.81,414.22 865.08,407.10 C869.25,403.05 882.28,392.60 889.05,387.89 C895.74,383.26 908.90,375.47 916.17,372.01 C922.84,368.84 935.75,363.90 943.87,361.30 C952.80,358.59 966.02,355.65 973.84,354.29 C983.46,352.83 997.82,351.29 1005.75,350.86 C1011.64,350.59 1029.61,351.29 1037.64,352.05 C1045.58,352.95 1063.98,355.77 1068.37,356.82 C1077.07,358.96 1091.06,363.27 1098.15,366.02 C1106.05,369.11 1116.30,374.04 1125.42,379.00 C1134.78,384.40 1144.65,390.75 1150.84,396.08 C1157.21,401.60 1168.10,413.86 1173.22,420.81 C1177.29,426.35 1187.53,442.37 1191.65,448.87 C1196.34,456.52 1197.86,460.25 1200.62,467.50" fill="none" stroke="rgb(0, 0, 0)" stroke-width="7.00" stroke-opacity="1.00" stroke-linejoin="round"/>
<path d="M838.73,366.34 C837.88,366.95 836.73,367.60 836.33,367.87 C832.94,370.24 822.87,379.84 817.13,386.40 C813.90,390.10 805.02,401.61 800.88,407.68 C797.79,412.26 791.70,422.46 789.78,427.83 C788.53,431.40 787.22,438.63 787.40,441.93 C787.65,445.57 790.08,452.34 792.29,455.42 C794.56,458.51 800.11,462.90 803.34,464.20 C806.60,465.46 812.62,466.06 815.67,465.54 C818.24,465.07 823.40,462.76 825.57,461.15 C829.29,458.32 834.16,452.04 836.18,448.67" fill="none" stroke="rgb(0, 0, 0)" stroke-width="7.00" stroke-opacity="1.00" stroke-linejoin="round"/>
<path d="M847.72,429.72 C847.30,429.90 840.22,441.85 837.80,445.63 C836.16,448.13 833.94,451.51 833.37,452.38" fill="none" stroke="rgb(0, 0, 0)" stroke-width="7.00" stroke-opacity="1.00" stroke-linejoin="round"/>
<path d="M1199.83,468.45 C1202.23,468.33 1208.16,468.06 1210.94,468.34 C1218.01,469.06 1236.27,471.00 1243.02,472.22 C1252.07,473.87 1266.80,478.37 1273.44,481.25 C1279.38,483.85 1293.36,491.58 1299.10,495.38 C1304.93,499.27 1315.59,507.67 1323.70,514.73 C1329.33,519.88 1339.37,529.65 1345.01,536.40 C1349.72,542.05 1359.08,555.32 1362.53,561.15 C1364.41,564.34 1374.51,584.39 1376.58,589.14 C1380.10,597.30 1384.60,610.39 1386.71,618.62 C1388.83,626.91 1391.16,641.64 1391.53,649.59 C1391.84,656.59 1391.23,670.28 1390.18,681.34 C1389.14,690.16 1386.83,705.19 1383.96,712.83 C1382.83,715.70 1381.33,719.49 1380.97,720.41" fill="none" stroke="rgb(0, 0, 0)" stroke-width="7.00" stroke-opacity="1.00" stroke-linejoin="round"/>
<path d="M519.58,471.01 C521.23,471.03 541.63,473.71 545.03,474.25 C547.67,474.68 566.46,478.47 569.71,479.33 C575.80,480.94 587.40,485.20 591.93,488.43 C594.60,490.37 598.10,494.06 599.33,496.26 C600.43,498.30 601.48,502.58 601.56,505.25 C601.67,510.17 599.48,520.29 597.63,523.82 C596.62,525.71 594.04,528.97 592.35,530.14 C590.55,531.32 586.09,532.48 583.09,532.40 C577.39,532.19 546.54,525.17 539.33,524.12" fill="none" stroke="rgb(0, 0, 0)" stroke-width="7.00" stroke-opacity="1.00" stroke-linejoin="round"/>
<path d="M490.01,523.85 C484.91,524.80 468.16,527.87 463.69,529.10 C454.72,531.63 440.03,538.18 432.84,542.13 C428.57,544.50 411.65,555.17 406.42,558.83 C399.85,563.53 387.25,573.81 382.26,578.55 C376.78,583.77 366.00,595.99 361.36,602.21 C358.69,605.83 348.52,621.27 344.63,627.65 C339.43,636.65 334.03,647.55 330.85,654.49 C327.86,661.46 322.48,675.57 320.06,682.76 C317.82,690.05 314.61,701.77 312.44,712.61 C311.07,720.41 308.81,736.48 307.93,744.56 C307.25,752.46 306.35,770.74 306.45,775.45 C306.66,783.50 307.86,798.98 308.94,806.37 C310.03,813.78 313.36,829.07 315.36,835.62 C318.02,844.05 322.31,855.35 326.53,865.09 C329.65,871.86 336.92,886.15 341.02,892.45 C349.31,905.08 358.71,915.10 359.33,915.77" fill="none" stroke="rgb(0, 0, 0)" stroke-width="7.00" stroke-opacity="1.00" stroke-linejoin="round"/>
<path d="M547.14,524.47 C545.97,523.92 533.35,522.44 525.14,522.22 C518.44,522.00 503.52,522.49 499.20,522.94 C485.09,524.43 473.28,527.13 470.75,527.75" fill="none" stroke="rgb(0, 0, 0)" stroke-width="7.00" stroke-opacity="1.00" stroke-linejoin="round"/>
<path d="M1326.28,1103.65 C1326.14,1107.70 1322.82,1120.01 1320.44,1125.94 C1318.64,1130.40 1312.44,1142.15 1308.97,1147.40 C1305.30,1152.85 1296.28,1164.05 1291.15,1169.28 C1286.15,1174.35 1274.13,1184.66 1268.52,1188.71 C1265.28,1191.04 1250.58,1200.52 1243.67,1204.27 C1237.52,1207.56 1227.44,1212.12 1218.59,1215.61 C1206.78,1220.19 1199.55,1223.55 1194.11,1227.07 C1192.62,1228.04 1191.70,1228.67 1191.14,1229.09" fill="none" stroke="rgb(0, 0, 0)" stroke-width="7.00" stroke-opacity="1.00" stroke-linejoin="round"/>
<path d="M1326.87,1101.68 C1326.57,1101.61 1307.21,1104.38 1303.22,1104.78 C1296.33,1105.46 1261.77,1106.32 1247.64,1105.84 C1241.43,1105.52 1221.91,1103.77 1219.48,1103.33 C1217.18,1102.91 1200.28,1099.20 1194.83,1097.37 C1187.77,1094.97 1177.69,1090.41 1169.63,1086.03 C1162.98,1082.31 1152.62,1075.52 1147.43,1070.40 C1145.20,1068.19 1140.46,1062.37 1139.13,1060.07 C1136.45,1055.31 1135.98,1049.15 1135.99,1048.40" fill="none" stroke="rgb(0, 0, 0)" stroke-width="7.00" stroke-opacity="1.00" stroke-linejoin="round"/>
<path d="M1237.96,1057.25 C1241.11,1057.77 1256.81,1058.94 1262.37,1058.97 C1268.06,1058.98 1283.22,1057.88 1290.16,1057.11 C1297.02,1056.21 1310.89,1053.99 1317.59,1052.55 C1324.25,1051.03 1336.16,1047.62 1343.23,1045.05 C1349.52,1042.65 1361.69,1037.51 1367.49,1034.79 C1373.25,1031.97 1384.14,1025.90 1390.86,1021.53 C1396.99,1017.41 1408.59,1008.56 1413.80,1004.04 C1419.04,999.41 1428.02,989.98 1432.37,984.35 C1441.08,972.65 1454.87,950.48 1461.51,938.00 C1464.46,932.39 1470.14,918.13 1471.70,912.14 C1472.56,908.77 1475.34,891.95 1475.98,883.59 C1476.33,878.45 1476.76,863.59 1476.32,856.71 C1475.86,849.78 1473.89,837.72 1471.47,828.20 C1469.85,821.89 1465.06,807.89 1461.98,801.63 C1459.01,795.64 1451.21,783.23 1447.05,778.30 C1440.58,770.74 1431.35,760.86 1426.12,755.59 C1420.94,750.65 1409.56,740.04 1405.43,736.50 C1392.74,725.77 1380.25,719.43 1380.29,719.43" fill="none" stroke="rgb(0, 0, 0)" stroke-width="7.00" stroke-opacity="1.00" stroke-linejoin="round"/>
<path d="M1247.70,1057.62 C1247.70,1057.62 1250.62,1057.67 1250.62,1057.67 C1250.56,1057.64 1239.50,1057.28 1234.56,1056.59 C1228.26,1055.69 1216.73,1053.08 1209.38,1050.73 C1200.34,1047.75 1190.83,1043.49 1185.19,1039.64 C1176.72,1033.90 1169.69,1029.59 1165.29,1028.29 C1162.51,1027.50 1157.33,1027.32 1154.61,1027.83 C1151.81,1028.37 1146.98,1030.38 1144.84,1031.83 C1142.87,1033.20 1139.61,1036.54 1138.45,1038.39 C1137.01,1040.78 1135.64,1046.14 1135.53,1049.61 C1135.49,1051.39 1135.70,1052.69 1135.69,1052.74" fill="none" stroke="rgb(0, 0, 0)" stroke-width="7.00" stroke-opacity="1.00" stroke-linejoin="round"/>
<path d="M1174.96,1394.59 C1175.68,1394.79 1178.06,1392.07 1179.40,1389.24 C1181.40,1384.92 1183.16,1372.15 1183.79,1365.00 C1184.28,1356.82 1184.32,1344.71 1184.17,1341.37 C1181.37,1295.77 1179.41,1275.34 1178.85,1270.45" fill="none" stroke="rgb(0, 0, 0)" stroke-width="7.00" stroke-opacity="1.00" stroke-linejoin="round"/>
<path d="M1193.58,1226.46 C1193.49,1226.65 1190.91,1228.65 1190.20,1229.44 C1187.40,1232.66 1183.17,1241.82 1181.58,1247.13 C1180.11,1252.12 1178.75,1260.84 1178.93,1267.00 C1179.06,1271.32 1179.81,1281.28 1179.95,1282.37" fill="none" stroke="rgb(0, 0, 0)" stroke-width="7.00" stroke-opacity="1.00" stroke-linejoin="round"/>
<path d="M1223.13,1262.40 C1223.41,1265.36 1223.92,1271.00 1224.14,1273.67 C1226.35,1300.36 1226.60,1307.25 1226.63,1331.84 C1226.43,1347.65 1224.92,1380.11 1223.70,1390.50 C1222.92,1396.33 1220.24,1408.08 1218.52,1413.04 C1216.88,1417.74 1212.24,1427.25 1209.13,1431.41 C1205.20,1436.61 1196.29,1444.12 1191.46,1446.66 C1186.14,1449.40 1179.61,1450.67 1176.35,1450.76" fill="none" stroke="rgb(0, 0, 0)" stroke-width="7.00" stroke-opacity="1.00" stroke-linejoin="round"/>
<path d="M494.28,1016.11 C494.16,1016.16 496.43,1021.45 497.55,1024.09 C500.80,1031.62 506.74,1042.76 508.68,1046.05 C512.49,1052.50 521.24,1065.21 524.92,1070.19 C528.72,1075.16 536.62,1084.17 541.97,1089.84 C547.28,1095.30 558.20,1105.05 563.21,1109.02 C566.29,1111.45 578.91,1120.40 584.41,1124.02 C598.31,1132.80 620.57,1144.23 633.54,1149.17 C639.89,1151.57 653.59,1155.87 659.24,1157.17 C665.37,1158.56 679.68,1160.51 686.55,1160.85 C695.27,1161.27 727.86,1159.67 742.12,1158.57 C750.01,1157.89 765.69,1156.35 774.19,1155.24 C796.80,1151.71 812.84,1149.98 826.11,1149.79 C832.89,1149.88 842.13,1150.19 844.04,1150.30" fill="none" stroke="rgb(0, 0, 0)" stroke-width="7.00" stroke-opacity="1.00" stroke-linejoin="round"/>
<path d="M840.63,1149.14 C843.30,1149.46 849.44,1150.16 852.89,1150.55 C860.66,1151.46 870.41,1153.64 880.61,1157.14 C886.48,1159.18 900.85,1165.49 905.33,1167.66 C911.55,1170.75 922.35,1177.11 927.88,1180.84 C938.56,1188.21 965.06,1209.79 973.29,1217.06 C981.24,1224.33 1007.62,1250.47 1019.19,1262.14 C1032.10,1275.62 1045.94,1292.68 1055.99,1306.28 C1064.80,1318.49 1084.45,1345.66 1090.94,1355.32 C1102.14,1372.73 1107.63,1382.03 1121.03,1401.86 C1124.75,1407.24 1130.45,1415.40 1132.44,1418.19" fill="none" stroke="rgb(0, 0, 0)" stroke-width="7.00" stroke-opacity="1.00" stroke-linejoin="round"/>
<path d="M1182.16,1450.27 C1180.40,1450.54 1177.35,1451.00 1176.39,1451.01 C1173.62,1451.03 1168.57,1449.75 1166.20,1448.76 C1162.34,1447.11 1155.76,1442.31 1152.12,1438.82 C1137.82,1424.90 1132.16,1417.82 1130.10,1415.06 C1129.51,1414.28 1128.79,1413.31 1128.65,1413.12" fill="none" stroke="rgb(0, 0, 0)" stroke-width="7.00" stroke-opacity="1.00" stroke-linejoin="round"/>
<path d="M1174.89,1395.12 C1173.88,1393.96 1168.96,1388.76 1167.35,1386.95 C1160.44,1379.19 1141.77,1352.82 1132.78,1339.95 C1123.88,1327.78 1106.39,1304.28 1097.81,1293.28 C1089.48,1282.85 1068.57,1258.21 1058.21,1246.27 C1048.13,1234.94 1026.31,1210.85 1018.04,1202.50 C1005.55,1190.26 987.56,1174.06 976.23,1164.50 C964.13,1154.80 943.38,1138.88 932.91,1132.90 C925.76,1128.88 917.18,1124.93 907.99,1121.14 C897.45,1117.03 866.74,1107.18 855.72,1104.73 C843.99,1102.26 830.49,1101.62 829.56,1101.59" fill="none" stroke="rgb(0, 0, 0)" stroke-width="7.00" stroke-opacity="1.00" stroke-linejoin="round"/>
<path d="M843.60,1102.70 C833.76,1101.45 817.83,1102.55 793.80,1105.19 C779.28,1106.90 749.48,1110.46 734.21,1112.31 C724.33,1113.42 711.97,1114.25 706.75,1114.24 C699.25,1114.22 686.89,1112.64 679.98,1111.38 C671.49,1109.68 659.95,1106.76 655.57,1105.48 C647.41,1102.94 636.37,1098.74 629.28,1095.39 C622.67,1092.26 613.06,1086.73 605.43,1081.83 C600.33,1078.44 589.09,1069.88 585.97,1067.01 C581.48,1062.85 572.69,1052.06 569.74,1047.68 C566.22,1042.44 549.70,1015.06 540.73,997.98 C533.99,985.10 526.52,970.83 526.36,970.52 C526.22,970.24 525.96,969.70 525.57,968.89" fill="none" stroke="rgb(0, 0, 0)" stroke-width="7.00" stroke-opacity="1.00" stroke-linejoin="round"/>
<path d="M430.27,958.37 C433.98,959.83 446.75,963.81 452.59,965.05 C458.13,966.22 469.61,967.71 476.70,968.33 C487.58,969.14 506.24,968.66 515.55,967.95 C518.24,967.71 523.04,967.10 524.23,966.88 C524.42,966.85 524.57,966.81 524.66,966.76" fill="none" stroke="rgb(0, 0, 0)" stroke-width="7.00" stroke-opacity="1.00" stroke-linejoin="round"/>
<path d="M522.59,966.97 C522.94,966.92 523.20,966.89 523.37,966.88 C524.72,966.89 526.58,968.77 527.98,971.30 C528.12,971.56 528.28,971.87 528.44,972.21" fill="none" stroke="rgb(0, 0, 0)" stroke-width="7.00" stroke-opacity="1.00" stroke-linejoin="round"/>
<path d="M356.30,912.69 C356.35,912.78 356.91,913.37 357.37,913.84 C361.39,918.26 368.04,923.87 374.43,928.51 C380.78,932.93 391.43,939.96 397.01,943.23 C413.40,952.65 423.44,956.84 432.42,959.79 C434.70,960.53 438.50,961.76 440.01,962.25" fill="none" stroke="rgb(0, 0, 0)" stroke-width="7.00" stroke-opacity="1.00" stroke-linejoin="round"/>
</g>
</svg>
