<?xml version="1.0" encoding="UTF-8" standalone="no"?>
<!DOCTYPE svg PUBLIC "-//W3C//DTD SVG 1.1//EN" "http://www.w3.org/Graphics/SVG/1.1/DTD/svg11.dtd">
<svg width="420.48" height="420.48" viewBox="0.00 0.00 1752.00 1752.00" xmlns="http://www.w3.org/2000/svg" xmlns:xlink="http://www.w3.org/1999/xlink">
<g stroke-linecap="round" id="vela_2_negro">
<path d="M773.58,662.32 L772.26,900.46" fill="none" stroke="rgb(0, 0, 0)" stroke-width="7.00" stroke-opacity="1.00" stroke-linejoin="round"/>
<path d="M911.79,662.23 L911.70,901.39" fill="none" stroke="rgb(0, 0, 0)" stroke-width="7.00" stroke-opacity="1.00" stroke-linejoin="round"/>
<path d="M774.69,660.44 L832.81,661.18" fill="none" stroke="rgb(0, 0, 0)" stroke-width="7.00" stroke-opacity="1.00" stroke-linejoin="round"/>
<path d="M835.18,665.36 L837.18,660.12" fill="none" stroke="rgb(0, 0, 0)" stroke-width="7.00" stroke-opacity="1.00" stroke-linejoin="round"/>
<path d="M850.51,660.44 L851.66,661.42 L909.95,662.16" fill="none" stroke="rgb(0, 0, 0)" stroke-width="7.00" stroke-opacity="1.00" stroke-linejoin="round"/>
<path d="M772.96,901.37 L833.01,901.91" fill="none" stroke="rgb(0, 0, 0)" stroke-width="7.00" stroke-opacity="1.00" stroke-linejoin="round"/>
<path d="M839.66,906.16 L839.82,906.51" fill="none" stroke="rgb(0, 0, 0)" stroke-width="7.00" stroke-opacity="1.00" stroke-linejoin="round"/>
<path d="M856.90,902.12 L909.98,902.59" fill="none" stroke="rgb(0, 0, 0)" stroke-width="7.00" stroke-opacity="1.00" stroke-linejoin="round"/>
<path d="M833.58,589.73 L834.09,659.19" fill="none" stroke="rgb(0, 0, 0)" stroke-width="7.00" stroke-opacity="1.00" stroke-linejoin="round"/>
<path d="M835.90,905.32 L836.37,968.72" fill="none" stroke="rgb(0, 0, 0)" stroke-width="7.00" stroke-opacity="1.00" stroke-linejoin="round"/>
<path d="M852.19,589.88 L852.60,659.26" fill="none" stroke="rgb(0, 0, 0)" stroke-width="7.00" stroke-opacity="1.00" stroke-linejoin="round"/>
<path d="M854.04,903.31 L854.42,968.05" fill="none" stroke="rgb(0, 0, 0)" stroke-width="7.00" stroke-opacity="1.00" stroke-linejoin="round"/>
<path d="M833.24,587.62 L852.23,586.96" fill="none" stroke="rgb(0, 0, 0)" stroke-width="7.00" stroke-opacity="1.00" stroke-linejoin="round"/>
<path d="M835.71,968.12 L852.86,968.34" fill="none" stroke="rgb(0, 0, 0)" stroke-width="7.00" stroke-opacity="1.00" stroke-linejoin="round"/>
</g>
</svg>
