<?xml version="1.0" encoding="UTF-8" standalone="no"?>
<!DOCTYPE svg PUBLIC "-//W3C//DTD SVG 1.1//EN" "http://www.w3.org/Graphics/SVG/1.1/DTD/svg11.dtd">
<svg width="420.48" height="420.48" viewBox="0.00 0.00 1752.00 1752.00" xmlns="http://www.w3.org/2000/svg" xmlns:xlink="http://www.w3.org/1999/xlink">
<g stroke-linecap="round" id="vela_1_blanco">
<path d="M556.72,679.64 L559.51,986.86" fill="none" stroke="rgb(255, 255, 255)" stroke-width="7.00" stroke-opacity="1.00" stroke-linejoin="round"/>
<path d="M557.18,679.16 L604.04,680.21" fill="none" stroke="rgb(255, 255, 255)" stroke-width="7.00" stroke-opacity="1.00" stroke-linejoin="round"/>
<path d="M623.94,677.97 L624.54,679.40" fill="none" stroke="rgb(0, 0, 0)" stroke-width="7.00" stroke-opacity="1.00" stroke-linejoin="round"/>
<path d="M625.19,678.97 L627.40,680.73 L667.94,681.64" fill="none" stroke="rgb(255, 255, 255)" stroke-width="7.00" stroke-opacity="1.00" stroke-linejoin="round"/>
<path d="M558.73,988.63 L609.25,988.75" fill="none" stroke="rgb(255, 255, 255)" stroke-width="7.00" stroke-opacity="1.00" stroke-linejoin="round"/>
<path d="M629.58,988.79 L671.69,988.88 L674.49,990.73" fill="none" stroke="rgb(255, 255, 255)" stroke-width="7.00" stroke-opacity="1.00" stroke-linejoin="round"/>
<path d="M675.53,991.42 L676.44,992.02" fill="none" stroke="rgb(0, 0, 0)" stroke-width="7.00" stroke-opacity="1.00" stroke-linejoin="round"/>
<path d="M603.89,593.28 L605.19,678.20" fill="none" stroke="rgb(255, 255, 255)" stroke-width="7.00" stroke-opacity="1.00" stroke-linejoin="round"/>
<path d="M609.96,992.19 L610.84,1049.58" fill="none" stroke="rgb(255, 255, 255)" stroke-width="7.00" stroke-opacity="1.00" stroke-linejoin="round"/>
<path d="M626.33,594.12 L626.96,679.03" fill="none" stroke="rgb(255, 255, 255)" stroke-width="7.00" stroke-opacity="1.00" stroke-linejoin="round"/>
<path d="M629.27,990.18 L629.71,1049.58" fill="none" stroke="rgb(255, 255, 255)" stroke-width="7.00" stroke-opacity="1.00" stroke-linejoin="round"/>
<path d="M604.87,591.47 L626.62,591.04" fill="none" stroke="rgb(255, 255, 255)" stroke-width="7.00" stroke-opacity="1.00" stroke-linejoin="round"/>
<path d="M611.28,1050.36 L628.71,1050.49" fill="none" stroke="rgb(255, 255, 255)" stroke-width="7.00" stroke-opacity="1.00" stroke-linejoin="round"/>
<path d="M670.53,685.33 L674.66,988.92" fill="none" stroke="rgb(255, 255, 255)" stroke-width="7.00" stroke-opacity="1.00" stroke-linejoin="round"/>
<path d="M670.60,685.47 C670.72,685.28 670.71,684.67 670.54,683.52 C670.50,683.25 670.42,682.74 670.29,681.97" fill="none" stroke="rgb(255, 255, 255)" stroke-width="7.00" stroke-opacity="1.00" stroke-linejoin="round"/>
<path d="M670.53,684.85 C670.57,684.20 670.59,683.74 670.58,683.44 C670.58,683.15 670.56,682.61 670.51,681.84" fill="none" stroke="rgb(255, 255, 255)" stroke-width="7.00" stroke-opacity="1.00" stroke-linejoin="round"/>
<path d="M671.02,684.35 C671.09,683.95 671.08,683.26 670.98,682.39 C670.96,682.21 670.92,681.94 670.86,681.58" fill="none" stroke="rgb(255, 255, 255)" stroke-width="7.00" stroke-opacity="1.00" stroke-linejoin="round"/>
<path d="M671.33,684.74 C671.36,683.98 671.37,682.95 671.32,682.28 C671.30,682.07 671.26,681.70 671.20,681.19" fill="none" stroke="rgb(255, 255, 255)" stroke-width="7.00" stroke-opacity="1.00" stroke-linejoin="round"/>
<path d="M671.26,683.06 C671.23,682.62 671.16,681.72 671.09,681.26 C671.06,681.11 671.02,680.89 670.96,680.62" fill="none" stroke="rgb(255, 255, 255)" stroke-width="7.00" stroke-opacity="1.00" stroke-linejoin="round"/>
<path d="M670.61,680.68 C669.93,680.76 669.41,680.82 669.04,680.84 C668.67,680.86 667.94,680.87 666.85,680.88" fill="none" stroke="rgb(255, 255, 255)" stroke-width="7.00" stroke-opacity="1.00" stroke-linejoin="round"/>
</g>
</svg>
