<?xml version="1.0" encoding="UTF-8" standalone="no"?>
<!DOCTYPE svg PUBLIC "-//W3C//DTD SVG 1.1//EN" "http://www.w3.org/Graphics/SVG/1.1/DTD/svg11.dtd">
<svg width="420.48" height="420.48" viewBox="0.00 0.00 1752.00 1752.00" xmlns="http://www.w3.org/2000/svg" xmlns:xlink="http://www.w3.org/1999/xlink">
<g stroke-linecap="round" id="vela_4_negro">
<path d="M1211.23,698.52 C1211.29,710.82 1211.44,742.78 1211.53,762.43 C1211.70,797.00 1211.90,839.83 1211.94,848.10" fill="none" stroke="rgb(0, 0, 0)" stroke-width="7.00" stroke-opacity="1.00" stroke-linejoin="round"/>
<path d="M1211.88,697.53 C1211.88,697.53 1257.46,697.51 1257.46,697.51" fill="none" stroke="rgb(0, 0, 0)" stroke-width="7.00" stroke-opacity="1.00" stroke-linejoin="round"/>
<path d="M1276.86,697.50 C1276.86,697.50 1320.65,697.48 1320.65,697.48" fill="none" stroke="rgb(0, 0, 0)" stroke-width="7.00" stroke-opacity="1.00" stroke-linejoin="round"/>
<path d="M1321.80,698.36 C1321.80,701.28 1321.81,706.57 1321.82,708.94 C1321.89,741.45 1322.03,807.61 1322.11,841.28 C1322.11,842.46 1322.11,844.66 1322.12,845.68" fill="none" stroke="rgb(0, 0, 0)" stroke-width="7.00" stroke-opacity="1.00" stroke-linejoin="round"/>
<path d="M1213.27,848.69 C1214.48,848.69 1215.69,848.68 1216.91,848.68 C1231.77,848.66 1253.54,848.63 1260.44,848.62" fill="none" stroke="rgb(0, 0, 0)" stroke-width="7.00" stroke-opacity="1.00" stroke-linejoin="round"/>
<path d="M1279.02,848.60 C1279.02,848.60 1321.88,848.54 1321.88,848.54" fill="none" stroke="rgb(0, 0, 0)" stroke-width="7.00" stroke-opacity="1.00" stroke-linejoin="round"/>
<path d="M1322.66,843.99 C1322.67,844.88 1322.68,845.77 1322.69,846.66 C1322.69,847.01 1322.70,847.31 1322.71,847.56" fill="none" stroke="rgb(0, 0, 0)" stroke-width="7.00" stroke-opacity="1.00" stroke-linejoin="round"/>
<path d="M1257.83,625.07 L1258.72,694.99" fill="none" stroke="rgb(0, 0, 0)" stroke-width="7.00" stroke-opacity="1.00" stroke-linejoin="round"/>
<path d="M1260.71,852.53 L1261.39,906.45" fill="none" stroke="rgb(0, 0, 0)" stroke-width="7.00" stroke-opacity="1.00" stroke-linejoin="round"/>
<path d="M1258.00,623.29 L1275.72,622.95" fill="none" stroke="rgb(0, 0, 0)" stroke-width="7.00" stroke-opacity="1.00" stroke-linejoin="round"/>
<path d="M1275.72,623.84 L1276.26,696.97" fill="none" stroke="rgb(0, 0, 0)" stroke-width="7.00" stroke-opacity="1.00" stroke-linejoin="round"/>
<path d="M1277.39,851.71 L1277.80,907.49" fill="none" stroke="rgb(0, 0, 0)" stroke-width="7.00" stroke-opacity="1.00" stroke-linejoin="round"/>
<path d="M1261.56,907.67 L1276.71,906.92" fill="none" stroke="rgb(0, 0, 0)" stroke-width="7.00" stroke-opacity="1.00" stroke-linejoin="round"/>
</g>
</svg>
